<svg width="46" height="46" viewBox="0 0 46 46" fill="none" xmlns="http://www.w3.org/2000/svg">
<rect width="46" height="46" rx="12" fill="#F1F6FF"/>
<g clip-path="url(#clip0_7_799)">
<path opacity="0.803" fill-rule="evenodd" clip-rule="evenodd" d="M29.9998 23.937C30.5302 23.937 31.0389 24.1477 31.414 24.5228C31.7891 24.8979 31.9998 25.4066 31.9998 25.937V29.487C31.9998 30.0174 31.7891 30.5262 31.414 30.9012C31.0389 31.2763 30.5302 31.487 29.9998 31.487H18.7218C18.226 31.487 17.7352 31.3894 17.2771 31.1997C16.8191 31.0099 16.403 30.7319 16.0524 30.3813C15.7019 30.0308 15.4238 29.6146 15.2341 29.1566C15.0444 28.6986 14.9468 28.2078 14.9468 27.712C14.9468 27.2163 15.0444 26.7254 15.2341 26.2674C15.4238 25.8094 15.7019 25.3932 16.0524 25.0427C16.403 24.6921 16.8191 24.4141 17.2771 24.2244C17.7352 24.0347 18.226 23.937 18.7218 23.937H29.9998ZM17.7898 25.825C17.5414 25.8245 17.2954 25.8729 17.0658 25.9674C16.8362 26.062 16.6274 26.2008 16.4515 26.376C16.2755 26.5513 16.1358 26.7594 16.0403 26.9887C15.9447 27.2179 15.8953 27.4637 15.8948 27.712C15.895 27.9604 15.9443 28.2063 16.0396 28.4356C16.135 28.6649 16.2746 28.8732 16.4505 29.0486C16.6264 29.2239 16.8351 29.3629 17.0647 29.4575C17.2944 29.5521 17.5404 29.6005 17.7888 29.6C18.0372 29.6005 18.2833 29.5521 18.513 29.4575C18.7427 29.3629 18.9515 29.224 19.1274 29.0486C19.3034 28.8733 19.4431 28.665 19.5386 28.4357C19.634 28.2063 19.6834 27.9604 19.6838 27.712C19.6833 27.4637 19.6338 27.2179 19.5383 26.9887C19.4428 26.7594 19.3031 26.5513 19.1271 26.376C18.9511 26.2008 18.7424 26.062 18.5127 25.9674C18.2831 25.8729 18.0381 25.8245 17.7898 25.825Z" fill="#1A47FF"/>
<path opacity="0.803" fill-rule="evenodd" clip-rule="evenodd" d="M25.9539 17.1202L28.4789 19.6352C28.8545 20.0096 29.0661 20.5178 29.067 21.0482C29.068 21.5785 28.8582 22.0875 28.4839 22.4632L28.4789 22.4692L20.5229 30.3942C19.8113 31.1033 18.8476 31.5015 17.8429 31.5015C16.8383 31.5015 15.8746 31.1033 15.1629 30.3942C14.8117 30.0441 14.5329 29.6282 14.3428 29.1702C14.1526 28.7122 14.0547 28.2211 14.0547 27.7252C14.0547 27.2293 14.1526 26.7382 14.3428 26.2802C14.5329 25.8222 14.8117 25.4063 15.1629 25.0562L23.1309 17.1192C23.5058 16.7458 24.0133 16.5361 24.5424 16.5361C25.0715 16.5361 25.5791 16.7468 25.9539 17.1202ZM17.7889 25.8252C17.2876 25.8244 16.8064 26.0227 16.4513 26.3766C16.0961 26.7304 15.896 27.2109 15.8949 27.7122C15.8952 27.9606 15.9444 28.2065 16.0398 28.4358C16.1351 28.6651 16.2747 28.8734 16.4506 29.0488C16.6265 29.2241 16.8353 29.3631 17.0649 29.4577C17.2945 29.5523 17.5406 29.6007 17.7889 29.6002C18.0374 29.6007 18.2834 29.5523 18.5131 29.4577C18.7428 29.3631 18.9516 29.2242 19.1276 29.0488C19.3036 28.8735 19.4433 28.6652 19.5388 28.4359C19.6342 28.2065 19.6835 27.9606 19.6839 27.7122C19.6834 27.4639 19.634 27.2181 19.5385 26.9889C19.4429 26.7596 19.3032 26.5515 19.1273 26.3762C18.9513 26.201 18.7425 26.0622 18.5129 25.9676C18.2833 25.8731 18.0373 25.8247 17.7889 25.8252Z" fill="#1A47FF"/>
<path fill-rule="evenodd" clip-rule="evenodd" d="M19.579 14.5C20.1094 14.5 20.6182 14.7107 20.9932 15.0858C21.3683 15.4609 21.579 15.9696 21.579 16.5V27.698C21.5872 28.2008 21.4952 28.7002 21.3084 29.1672C21.1217 29.6341 20.8438 30.0592 20.4911 30.4176C20.1384 30.7761 19.7179 31.0608 19.2541 31.2551C18.7903 31.4495 18.2924 31.5496 17.7895 31.5496C17.2866 31.5496 16.7888 31.4495 16.3249 31.2551C15.8611 31.0608 15.4406 30.7761 15.0879 30.4176C14.7352 30.0592 14.4574 29.6341 14.2706 29.1672C14.0838 28.7002 13.9918 28.2008 14 27.698V16.5C14 15.9696 14.2107 15.4609 14.5858 15.0858C14.9609 14.7107 15.4696 14.5 16 14.5H19.579ZM17.789 25.825C17.2877 25.8242 16.8065 26.0225 16.4513 26.3764C16.0962 26.7302 15.8961 27.2106 15.895 27.712C15.8953 27.9604 15.9445 28.2062 16.0398 28.4356C16.1352 28.6649 16.2748 28.8732 16.4507 29.0486C16.6266 29.2239 16.8353 29.3629 17.065 29.4575C17.2946 29.5521 17.5406 29.6005 17.789 29.6C18.0374 29.6005 18.2835 29.5521 18.5132 29.4575C18.7429 29.3629 18.9517 29.2239 19.1277 29.0486C19.3037 28.8733 19.4434 28.665 19.5388 28.4357C19.6343 28.2063 19.6836 27.9604 19.684 27.712C19.6835 27.4637 19.6341 27.2179 19.5385 26.9886C19.443 26.7594 19.3033 26.5513 19.1273 26.376C18.9514 26.2008 18.7426 26.062 18.513 25.9674C18.2833 25.8729 18.0373 25.8245 17.789 25.825Z" fill="#1F2024"/>
</g>
<defs>
<clipPath id="clip0_7_799">
<rect width="18" height="18" fill="white" transform="translate(14 14)"/>
</clipPath>
</defs>
</svg>
