<svg width="185" height="46" viewBox="0 0 185 46" fill="none" xmlns="http://www.w3.org/2000/svg">
<rect width="46" height="46" rx="12" fill="#F1F6FF"/>
<g clip-path="url(#clip0_7_797)">
<path opacity="0.803" fill-rule="evenodd" clip-rule="evenodd" d="M29.9998 23.937C30.5302 23.937 31.0389 24.1477 31.414 24.5228C31.7891 24.8979 31.9998 25.4066 31.9998 25.937V29.487C31.9998 30.0174 31.7891 30.5262 31.414 30.9012C31.0389 31.2763 30.5302 31.487 29.9998 31.487H18.7218C18.226 31.487 17.7352 31.3894 17.2771 31.1997C16.8191 31.0099 16.403 30.7319 16.0524 30.3813C15.7019 30.0308 15.4238 29.6146 15.2341 29.1566C15.0444 28.6986 14.9468 28.2078 14.9468 27.712C14.9468 27.2163 15.0444 26.7254 15.2341 26.2674C15.4238 25.8094 15.7019 25.3932 16.0524 25.0427C16.403 24.6921 16.8191 24.4141 17.2771 24.2244C17.7352 24.0347 18.226 23.937 18.7218 23.937H29.9998ZM17.7898 25.825C17.5414 25.8245 17.2954 25.8729 17.0658 25.9674C16.8362 26.062 16.6274 26.2008 16.4515 26.376C16.2755 26.5513 16.1358 26.7594 16.0403 26.9887C15.9447 27.2179 15.8953 27.4637 15.8948 27.712C15.895 27.9604 15.9443 28.2063 16.0396 28.4356C16.135 28.6649 16.2746 28.8732 16.4505 29.0486C16.6264 29.2239 16.8351 29.3629 17.0647 29.4575C17.2944 29.5521 17.5404 29.6005 17.7888 29.6C18.0372 29.6005 18.2833 29.5521 18.513 29.4575C18.7427 29.3629 18.9515 29.224 19.1274 29.0486C19.3034 28.8733 19.4431 28.665 19.5386 28.4357C19.634 28.2063 19.6834 27.9604 19.6838 27.712C19.6833 27.4637 19.6338 27.2179 19.5383 26.9887C19.4428 26.7594 19.3031 26.5513 19.1271 26.376C18.9511 26.2008 18.7424 26.062 18.5127 25.9674C18.2831 25.8729 18.0381 25.8245 17.7898 25.825Z" fill="#1A47FF"/>
<path opacity="0.803" fill-rule="evenodd" clip-rule="evenodd" d="M25.9539 17.12L28.4789 19.635C28.8545 20.0094 29.0661 20.5176 29.067 21.0479C29.068 21.5783 28.8582 22.0872 28.4839 22.463L28.4789 22.469L20.5229 30.394C19.8113 31.1031 18.8476 31.5012 17.8429 31.5012C16.8383 31.5012 15.8746 31.1031 15.1629 30.394C14.8117 30.0439 14.5329 29.6279 14.3428 29.1699C14.1526 28.7119 14.0547 28.2209 14.0547 27.725C14.0547 27.229 14.1526 26.738 14.3428 26.28C14.5329 25.822 14.8117 25.406 15.1629 25.056L23.1309 17.119C23.5058 16.7456 24.0133 16.5359 24.5424 16.5359C25.0715 16.5359 25.5791 16.7466 25.9539 17.12ZM17.7889 25.825C17.2876 25.8242 16.8064 26.0225 16.4513 26.3764C16.0961 26.7302 15.896 27.2106 15.8949 27.712C15.8952 27.9603 15.9444 28.2062 16.0398 28.4355C16.1351 28.6649 16.2747 28.8732 16.4506 29.0485C16.6265 29.2239 16.8353 29.3628 17.0649 29.4574C17.2945 29.5521 17.5406 29.6005 17.7889 29.6C18.0374 29.6005 18.2834 29.5521 18.5131 29.4575C18.7428 29.3628 18.9516 29.2239 19.1276 29.0486C19.3036 28.8733 19.4433 28.665 19.5388 28.4356C19.6342 28.2063 19.6835 27.9604 19.6839 27.712C19.6834 27.4636 19.634 27.2178 19.5385 26.9886C19.4429 26.7594 19.3032 26.5512 19.1273 26.376C18.9513 26.2008 18.7425 26.0619 18.5129 25.9674C18.2833 25.8728 18.0373 25.8244 17.7889 25.825Z" fill="#1A47FF"/>
<path fill-rule="evenodd" clip-rule="evenodd" d="M19.579 14.5C20.1094 14.5 20.6182 14.7107 20.9932 15.0858C21.3683 15.4609 21.579 15.9696 21.579 16.5V27.698C21.5872 28.2008 21.4952 28.7002 21.3084 29.1672C21.1217 29.6341 20.8438 30.0592 20.4911 30.4176C20.1384 30.7761 19.7179 31.0608 19.2541 31.2551C18.7903 31.4495 18.2924 31.5496 17.7895 31.5496C17.2866 31.5496 16.7888 31.4495 16.3249 31.2551C15.8611 31.0608 15.4406 30.7761 15.0879 30.4176C14.7352 30.0592 14.4574 29.6341 14.2706 29.1672C14.0838 28.7002 13.9918 28.2008 14 27.698V16.5C14 15.9696 14.2107 15.4609 14.5858 15.0858C14.9609 14.7107 15.4696 14.5 16 14.5H19.579ZM17.789 25.825C17.2877 25.8242 16.8065 26.0225 16.4513 26.3764C16.0962 26.7302 15.8961 27.2106 15.895 27.712C15.8953 27.9604 15.9445 28.2062 16.0398 28.4356C16.1352 28.6649 16.2748 28.8732 16.4507 29.0486C16.6266 29.2239 16.8353 29.3629 17.065 29.4575C17.2946 29.5521 17.5406 29.6005 17.789 29.6C18.0374 29.6005 18.2835 29.5521 18.5132 29.4575C18.7429 29.3629 18.9517 29.2239 19.1277 29.0486C19.3037 28.8733 19.4434 28.665 19.5388 28.4357C19.6343 28.2063 19.6836 27.9604 19.684 27.712C19.6835 27.4637 19.6341 27.2179 19.5385 26.9886C19.443 26.7594 19.3033 26.5513 19.1273 26.376C18.9514 26.2008 18.7426 26.062 18.513 25.9674C18.2833 25.8729 18.0373 25.8245 17.789 25.825Z" fill="#1F2024"/>
</g>
<path d="M62.935 32H56.7475V14.5455H62.9862C64.7418 14.5455 66.2532 14.8949 67.5202 15.5938C68.7873 16.2869 69.7617 17.2841 70.4435 18.5852C71.131 19.8864 71.4748 21.4432 71.4748 23.2557C71.4748 25.0739 71.131 26.6364 70.4435 27.9432C69.7617 29.25 68.7816 30.2528 67.5032 30.9517C66.2305 31.6506 64.7077 32 62.935 32ZM60.4379 28.8381H62.7816C63.8725 28.8381 64.7901 28.6449 65.5344 28.2585C66.2844 27.8665 66.8469 27.2614 67.2219 26.4432C67.6026 25.6193 67.793 24.5568 67.793 23.2557C67.793 21.9659 67.6026 20.9119 67.2219 20.0938C66.8469 19.2756 66.2873 18.6733 65.543 18.2869C64.7987 17.9006 63.881 17.7074 62.7901 17.7074H60.4379V28.8381ZM85.9506 32H79.7631V14.5455H86.0018C87.7575 14.5455 89.2688 14.8949 90.5359 15.5938C91.8029 16.2869 92.7773 17.2841 93.4592 18.5852C94.1467 19.8864 94.4904 21.4432 94.4904 23.2557C94.4904 25.0739 94.1467 26.6364 93.4592 27.9432C92.7773 29.25 91.7972 30.2528 90.5188 30.9517C89.2461 31.6506 87.7234 32 85.9506 32ZM83.4535 28.8381H85.7972C86.8881 28.8381 87.8058 28.6449 88.5501 28.2585C89.3001 27.8665 89.8626 27.2614 90.2376 26.4432C90.6183 25.6193 90.8086 24.5568 90.8086 23.2557C90.8086 21.9659 90.6183 20.9119 90.2376 20.0938C89.8626 19.2756 89.3029 18.6733 88.5586 18.2869C87.8143 17.9006 86.8967 17.7074 85.8058 17.7074H83.4535V28.8381ZM97.2241 32V14.5455H108.985V17.5881H100.914V21.7472H108.38V24.7898H100.914V28.9574H109.02V32H97.2241ZM121.388 19.5653C121.32 18.8778 121.027 18.3437 120.51 17.9631C119.993 17.5824 119.292 17.392 118.405 17.392C117.803 17.392 117.294 17.4773 116.88 17.6477C116.465 17.8125 116.147 18.0426 115.925 18.3381C115.709 18.6335 115.601 18.9688 115.601 19.3438C115.59 19.6562 115.655 19.929 115.797 20.1619C115.945 20.3949 116.147 20.5966 116.402 20.767C116.658 20.9318 116.953 21.0767 117.289 21.2017C117.624 21.321 117.982 21.4233 118.363 21.5085L119.931 21.8835C120.692 22.054 121.391 22.2812 122.027 22.5653C122.664 22.8494 123.215 23.1989 123.681 23.6136C124.147 24.0284 124.507 24.517 124.763 25.0795C125.025 25.642 125.158 26.2869 125.164 27.0142C125.158 28.0824 124.885 29.0085 124.346 29.7926C123.811 30.571 123.039 31.1761 122.027 31.608C121.022 32.0341 119.809 32.2472 118.388 32.2472C116.979 32.2472 115.752 32.0312 114.706 31.5994C113.667 31.1676 112.854 30.5284 112.269 29.6818C111.689 28.8295 111.385 27.7756 111.357 26.5199H114.928C114.968 27.1051 115.135 27.5937 115.431 27.9858C115.732 28.3722 116.132 28.6648 116.632 28.8636C117.138 29.0568 117.709 29.1534 118.346 29.1534C118.971 29.1534 119.513 29.0625 119.973 28.8807C120.439 28.6989 120.8 28.446 121.056 28.1222C121.311 27.7983 121.439 27.4261 121.439 27.0057C121.439 26.6136 121.323 26.2841 121.09 26.017C120.863 25.75 120.527 25.5227 120.084 25.3352C119.647 25.1477 119.11 24.9773 118.473 24.8239L116.573 24.3466C115.101 23.9886 113.939 23.429 113.087 22.6676C112.235 21.9062 111.811 20.8807 111.817 19.5909C111.811 18.5341 112.093 17.6108 112.661 16.821C113.235 16.0312 114.022 15.4148 115.022 14.9716C116.022 14.5284 117.158 14.3068 118.431 14.3068C119.726 14.3068 120.857 14.5284 121.823 14.9716C122.794 15.4148 123.55 16.0312 124.09 16.821C124.63 17.6108 124.908 18.5256 124.925 19.5653H121.388ZM131.336 14.5455V32H127.646V14.5455H131.336ZM145.946 20.1875C145.827 19.7727 145.659 19.4062 145.444 19.0881C145.228 18.7642 144.963 18.4915 144.651 18.2699C144.344 18.0426 143.992 17.8693 143.594 17.75C143.202 17.6307 142.767 17.571 142.29 17.571C141.398 17.571 140.614 17.7926 139.938 18.2358C139.267 18.679 138.745 19.3239 138.37 20.1705C137.995 21.0114 137.807 22.0398 137.807 23.2557C137.807 24.4716 137.992 25.5057 138.361 26.358C138.73 27.2102 139.253 27.8608 139.929 28.3097C140.605 28.7528 141.404 28.9744 142.324 28.9744C143.159 28.9744 143.873 28.8267 144.463 28.5312C145.06 28.2301 145.515 27.8068 145.827 27.2614C146.145 26.7159 146.304 26.071 146.304 25.3267L147.054 25.4375H142.554V22.6591H149.858V24.858C149.858 26.392 149.534 27.7102 148.887 28.8125C148.239 29.9091 147.347 30.7557 146.211 31.3523C145.074 31.9432 143.773 32.2386 142.307 32.2386C140.671 32.2386 139.233 31.8778 137.995 31.1562C136.756 30.429 135.79 29.3977 135.097 28.0625C134.409 26.7216 134.066 25.1307 134.066 23.2898C134.066 21.875 134.27 20.6136 134.679 19.5057C135.094 18.392 135.674 17.4489 136.418 16.6761C137.162 15.9034 138.029 15.3153 139.017 14.9119C140.006 14.5085 141.077 14.3068 142.23 14.3068C143.219 14.3068 144.14 14.4517 144.992 14.7415C145.844 15.0256 146.6 15.429 147.259 15.9517C147.924 16.4744 148.466 17.0966 148.887 17.8182C149.307 18.5341 149.577 19.3239 149.696 20.1875H145.946ZM167.23 14.5455V32H164.042L156.449 21.0142H156.321V32H152.63V14.5455H155.869L163.403 25.5227H163.556V14.5455H167.23ZM170.091 32V29.8097L178.801 17.5881H170.074V14.5455H183.438V16.7358L174.719 28.9574H183.455V32H170.091Z" fill="#2A55FF"/>
<defs>
<clipPath id="clip0_7_797">
<rect width="18" height="18" fill="white" transform="translate(14 14)"/>
</clipPath>
</defs>
</svg>
